<svg viewBox="0 0 200 240" xmlns="http://www.w3.org/2000/svg">
  <!-- Simplified robot (head + body only) -->
  <line x1="100" y1="28" x2="100" y2="12" stroke="#1D4ED8" stroke-width="4" stroke-linecap="round"/>
  <circle cx="100" cy="8" r="9" fill="#FCD34D"/>

  <circle cx="52" cy="68" r="7" fill="#60A5FA"/>
  <circle cx="52" cy="68" r="3.5" fill="#1D4ED8"/>
  <circle cx="148" cy="68" r="7" fill="#60A5FA"/>
  <circle cx="148" cy="68" r="3.5" fill="#1D4ED8"/>

  <rect x="58" y="30" width="84" height="82" rx="24" fill="#3B82F6"/>
  <circle cx="82" cy="65" r="15" fill="white"/>
  <circle cx="118" cy="65" r="15" fill="white"/>
  <circle cx="82" cy="66" r="9" fill="#1D4ED8"/>
  <circle cx="118" cy="66" r="9" fill="#1D4ED8"/>
  <circle cx="85" cy="61" r="4" fill="white"/>
  <circle cx="121" cy="61" r="4" fill="white"/>
  <path d="M 80 96 Q 100 108 120 96" fill="none" stroke="#93C5FD" stroke-width="4" stroke-linecap="round"/>

  <rect x="88" y="110" width="24" height="14" rx="5" fill="#2563EB"/>

  <rect x="46" y="122" width="108" height="84" rx="16" fill="#3B82F6"/>
  <rect x="64" y="138" width="72" height="54" rx="9" fill="#2563EB"/>
  <circle cx="82" cy="156" r="9" fill="#FCD34D"/>
  <circle cx="100" cy="156" r="9" fill="#34D399"/>
  <circle cx="118" cy="156" r="9" fill="#F87171"/>
  <circle cx="82" cy="156" r="4" fill="white" opacity="0.4"/>
  <circle cx="100" cy="156" r="4" fill="white" opacity="0.4"/>
  <circle cx="118" cy="156" r="4" fill="white" opacity="0.4"/>
  <rect x="72" y="175" width="56" height="12" rx="4" fill="#0F172A"/>
</svg>
